<?xml version="1.0" encoding="iso-8859-1"?>
<!-- Generator: Adobe Illustrator 23.1.0, SVG Export Plug-In . SVG Version: 6.00 Build 0)  -->
<svg version="1.1" id="Capa_1" xmlns="http://www.w3.org/2000/svg" xmlns:xlink="http://www.w3.org/1999/xlink" x="0px" y="0px"
	 viewBox="0 0 512 512" style="enable-background:new 0 0 512 512;" xml:space="preserve">
<g>
	<path style="fill:#4E5660;" d="M95.856,410.407H75.759c-37.699,0-68.259-30.561-68.259-68.259v-16.953
		c0-4.806,3.896-8.703,8.703-8.703h23.491c4.806,0,8.703,3.896,8.703,8.703v16.952c0,15.112,12.251,27.364,27.364,27.364h20.096
		V410.407z"/>
	<path style="fill:#4E5660;" d="M416.144,410.407h20.097c37.699,0,68.259-30.561,68.259-68.259v-16.953
		c0-4.806-3.896-8.703-8.703-8.703h-23.491c-4.806,0-8.703,3.896-8.703,8.703v16.952c0,15.112-12.251,27.364-27.364,27.364h-20.096
		V410.407z"/>
	<path style="fill:#4E5660;" d="M316.872,162.631c-11.293,0-20.448-9.155-20.448-20.448V65.75c0-9.569-7.785-17.354-17.354-17.354
		H232.93c-9.569,0-17.354,7.785-17.354,17.354v76.432c0,11.293-9.155,20.448-20.448,20.448c-11.293,0-20.448-9.155-20.448-20.448
		V65.75c0-32.119,26.131-58.25,58.251-58.25h46.139c32.119,0,58.251,26.131,58.251,58.25v76.432
		C337.321,153.476,328.165,162.631,316.872,162.631z"/>
	<path style="fill:#3A4351;" d="M232.93,48.397h46.139c9.569,0,17.354,7.785,17.354,17.354c0-32.103-8.002-58.25-40.424-58.25
		c-32.422,0-40.424,26.148-40.424,58.25C215.576,56.181,223.361,48.397,232.93,48.397z"/>
	<g>
		<path style="fill:#3A4351;" d="M316.872,162.631c11.293,0,20.448-9.155,20.448-20.448V84.225
			c-5.696-2.61-12.02-4.077-18.684-4.077h-22.213v62.035C296.424,153.476,305.579,162.631,316.872,162.631z"/>
		<path style="fill:#3A4351;" d="M195.128,162.631c11.293,0,20.448-9.155,20.448-20.448V80.148h-22.213
			c-6.664,0-12.988,1.467-18.684,4.077v57.957C174.68,153.476,183.835,162.631,195.128,162.631z"/>
	</g>
	<rect x="416.144" y="369.51" style="fill:#3A4351;" width="20.001" height="40.897"/>
	<rect x="75.855" y="369.51" style="fill:#3A4351;" width="20.001" height="40.897"/>
	<path style="fill:#E0B799;" d="M391.132,232.147c-26.225,0-47.484-21.259-47.484-47.484V125.16
		c0-13.813-11.198-25.012-25.012-25.012H193.364c-13.814,0-25.012,11.198-25.012,25.012v59.502c0,26.225-21.26,47.484-47.485,47.484
		h0c-13.813,0-25.012,11.198-25.012,25.012v193.762c0,29.591,23.988,53.579,53.579,53.579h213.13
		c29.591,0,53.579-23.988,53.579-53.579V257.158C416.144,243.345,404.946,232.147,391.132,232.147L391.132,232.147z"/>
	<path style="fill:#D99A84;" d="M165.997,199.435c-6.213,18.99-24.063,32.712-45.129,32.712l0,0
		c-13.814,0-25.012,11.198-25.012,25.012v193.762c0,29.591,23.988,53.579,53.579,53.579h114.569
		C163.722,458.902,164.392,291.922,165.997,199.435z"/>
	<path style="fill:#CDE9FA;" d="M230.492,372.183l-23.847,23.847l-40.409-40.409c-5.574-5.574-5.574-14.612,0-20.187l5.687-5.687
		c4.455-4.455,11.678-4.455,16.133,0L230.492,372.183z"/>
	<ellipse style="fill:#F6EE86;" cx="304.256" cy="353.252" rx="22.098" ry="28.899"/>
	<path style="fill:#4E5660;" d="M342.895,362.793h-173.79c-6.838,0-12.382,5.544-12.382,12.382v23.555
		c0,23.335,18.917,42.252,42.252,42.252h114.051c23.335,0,42.252-18.917,42.252-42.252v-23.555
		C355.277,368.337,349.733,362.793,342.895,362.793z"/>
	<g>
		<g>
			<ellipse style="fill:#FFFFFF;" cx="176.443" cy="288.058" rx="29.355" ry="23.377"/>
			<ellipse style="fill:#FFFFFF;" cx="335.557" cy="288.058" rx="29.355" ry="23.377"/>
			<path style="fill:#4E5660;" d="M256,263.22c-11.646,0-22.017-7.826-28.54,1.825c-6.617,9.79,8.202,24.97,28.54,24.97
				s35.156-15.18,28.539-24.97C278.017,255.395,267.646,263.22,256,263.22z"/>
		</g>
	</g>
	<path d="M325.75,253.108c-1.844,2.116-4.506,3.33-7.302,3.33s-5.457-1.214-7.301-3.33c-2.723-3.123-7.461-3.448-10.582-0.726
		c-3.123,2.721-3.448,7.459-0.727,10.582c4.694,5.386,11.477,8.475,18.609,8.475c7.133,0,13.916-3.089,18.61-8.475
		c2.722-3.123,2.397-7.86-0.727-10.582C333.209,249.66,328.473,249.986,325.75,253.108z M495.797,308.992h-23.49
		c-8.935,0-16.203,7.269-16.203,16.203v16.952c0,10.953-8.91,19.864-19.863,19.864h-12.596V257.158
		c0-17.927-14.585-32.512-32.512-32.512c-22.048,0-39.984-17.937-39.984-39.984V158.64c0-4.142-3.357-7.5-7.5-7.5
		c-4.143,0-7.5,3.358-7.5,7.5v26.023c0,30.318,24.666,54.984,54.984,54.984c9.656,0,17.512,7.855,17.512,17.512
		c0,59.584,0,135,0,193.763c0,25.408-20.671,46.079-46.079,46.079h-198.4c-4.142,0-7.5,3.358-7.5,7.5s3.358,7.5,7.5,7.5h198.4
		c33.679,0,61.079-27.4,61.079-61.079v-33.014h12.596c41.774,0,75.76-33.985,75.76-75.759v-16.953
		C512,316.26,504.731,308.992,495.797,308.992z M497,342.148c0,33.503-27.257,60.759-60.76,60.759h-12.596V377.01h12.596
		c19.224,0,34.863-15.64,34.863-34.864v-16.952c0-0.664,0.54-1.203,1.203-1.203h23.49c0.663,0,1.203,0.54,1.203,1.203V342.148z
		 M198.975,448.481h114.051c27.434,0,49.752-22.319,49.752-49.752v-23.554c0-10.963-8.919-19.882-19.882-19.882h-9.108
		c0.968-21.549-7.739-38.44-29.532-38.44c-21.845,0-30.497,16.965-29.532,38.44h-50.515l-30.849-30.849
		c-7.373-7.372-19.367-7.372-26.74,0l-5.686,5.687c-7.689,7.688-8.422,19.615-2.238,28.137c-5.673,3.506-9.473,9.763-9.473,16.907
		v23.554C149.223,426.163,171.541,448.481,198.975,448.481z M304.256,331.853c7.582,0,14.598,2.592,14.598,21.399
		c0,0.684-0.026,1.365-0.071,2.041h-29.053c-0.045-0.676-0.071-1.357-0.071-2.041C289.658,334.445,296.674,331.853,304.256,331.853z
		 M263.5,370.293c28.978,0.001,66.667,0.003,79.396,0c2.691,0,4.882,2.19,4.882,4.882v23.554c0,19.162-15.59,34.752-34.752,34.752
		H263.5V370.293z M171.54,340.737l5.687-5.687c1.523-1.523,4.002-1.523,5.525,0l20.243,20.243h-26.481l-4.975-4.976
		C168.891,347.67,168.891,343.386,171.54,340.737z M164.223,375.175c0-2.692,2.19-4.882,4.883-4.882H248.5v63.188h-49.525
		c-19.162,0-34.752-15.59-34.752-34.752V375.175z M131.913,493.554c-17.349-7.139-28.558-23.873-28.558-42.633
		c0-18.233,0-164.83,0-193.763c0-9.656,7.855-17.512,17.512-17.512c30.318,0,54.984-24.666,54.984-54.984V125.16
		c0-9.656,7.855-17.511,17.512-17.511h125.273c5.037,0,9.592,2.108,12.795,5.527c0.147,0.186,0.302,0.364,0.465,0.536
		c2.27,2.629,3.783,5.945,4.159,9.649c0.419,4.121,4.094,7.127,8.22,6.704c4.12-0.418,7.122-4.098,6.704-8.219
		c-0.609-6.002-2.814-11.467-6.16-16.008V65.751C344.82,29.496,315.324,0,279.069,0h-46.139c-36.255,0-65.751,29.496-65.751,65.751
		v40.165c-3.974,5.392-6.328,12.047-6.328,19.244v59.502c0,22.047-17.937,39.984-39.984,39.984
		c-17.927,0-32.512,14.584-32.512,32.512V362.01H75.76c-10.953,0-19.863-8.911-19.863-19.864v-16.952
		c0-8.934-7.269-16.203-16.203-16.203h-23.49C7.269,308.992,0,316.26,0,325.195v16.953c0,41.774,33.985,75.759,75.76,75.759h12.596
		v33.014c0,24.864,14.856,47.043,37.849,56.504c3.845,1.583,8.221-0.267,9.79-4.082C137.57,499.513,135.743,495.13,131.913,493.554z
		 M329.82,65.751v28.865c-8.304-3.02-13.624-1.585-25.897-1.967c-0.709-22.108,3.548-54.902-11.739-75.921
		C313.831,22.525,329.82,42.302,329.82,65.751z M256,15c17.108,0,26.939,8.353,30.883,27.162c-2.459-0.817-5.084-1.265-7.814-1.265
		c-46.257,0.403-47.301-0.944-53.952,1.265C229.061,23.353,238.892,15,256,15z M223.076,65.751c0-5.434,4.421-9.854,9.854-9.854
		h46.139c5.434,0,9.854,4.42,9.854,9.854v26.898h-65.848V65.751z M182.18,65.751c0-23.449,15.99-43.227,37.637-49.023
		c-15.75,21.656-10.794,56.375-11.74,75.921c-12.257,0.383-17.622-1.058-25.896,1.983V65.751z M88.355,402.907H75.76
		c-33.503,0-60.76-27.256-60.76-60.759v-16.953c0-0.664,0.54-1.203,1.203-1.203h23.49c0.663,0,1.203,0.54,1.203,1.203v16.952
		c0,19.224,15.64,34.864,34.863,34.864h12.596V402.907z M265.298,254.273c-8.42,1.928-10.175,1.928-18.596,0
		c-7.247-1.659-18.198-4.165-25.455,6.573c-3.672,5.433-3.846,12.188-0.477,18.531c5.671,10.68,20.158,18.138,35.23,18.138
		c15.071,0,29.559-7.458,35.229-18.138c3.369-6.344,3.195-13.098-0.477-18.531C283.497,250.107,272.546,252.616,265.298,254.273z
		 M256,282.515c-15.698,0-24.288-10.365-22.325-13.27c0.656-0.971,1.144-1.524,2.765-1.524c1.319,0,3.391,0.367,6.915,1.174
		c10.594,2.425,14.571,2.454,25.291,0c7.857-1.799,8.489-1.411,9.68,0.35C280.284,272.144,271.714,282.515,256,282.515z
		 M200.852,253.109c-1.844,2.116-4.505,3.329-7.301,3.329s-5.458-1.214-7.302-3.33c-2.723-3.123-7.461-3.448-10.582-0.726
		c-3.123,2.721-3.448,7.459-0.727,10.582c4.694,5.386,11.477,8.475,18.61,8.475c7.134,0,13.917-3.089,18.609-8.476
		c2.722-3.123,2.395-7.86-0.728-10.582C208.311,249.66,203.573,249.985,200.852,253.109z"/>
</g>
<g>
</g>
<g>
</g>
<g>
</g>
<g>
</g>
<g>
</g>
<g>
</g>
<g>
</g>
<g>
</g>
<g>
</g>
<g>
</g>
<g>
</g>
<g>
</g>
<g>
</g>
<g>
</g>
<g>
</g>
</svg>
